<?xml version="1.0" standalone="no"?>
<!DOCTYPE svg PUBLIC "-//W3C//DTD SVG 20010904//EN"
 "http://www.w3.org/TR/2001/REC-SVG-20010904/DTD/svg10.dtd">
<svg version="1.0" xmlns="http://www.w3.org/2000/svg"
 width="2000.000000pt" height="2000.000000pt" viewBox="0 0 2000.000000 2000.000000"
 preserveAspectRatio="xMidYMid meet">
<metadata>
Created by potrace 1.11, written by Peter Selinger 2001-2013
</metadata>
<g transform="translate(0.000000,2000.000000) scale(0.100000,-0.100000)"
fill="#000000" stroke="none">
<path d="M11628 15955 c-352 -67 -654 -324 -767 -654 -37 -107 -51 -197 -51
-321 0 -137 16 -231 60 -351 50 -139 117 -237 263 -384 141 -142 222 -253 291
-399 94 -197 132 -362 123 -536 -7 -134 -27 -211 -87 -335 -58 -120 -104 -183
-212 -293 -131 -133 -252 -180 -428 -169 -199 13 -432 127 -619 302 -147 139
-237 277 -292 450 -17 55 -42 121 -55 146 -96 192 -313 303 -529 270 -205 -32
-378 -194 -421 -394 -50 -235 56 -460 267 -566 110 -56 189 -67 355 -51 72 6
198 13 280 13 l149 2 121 -42 c206 -70 334 -144 458 -262 138 -133 217 -262
287 -471 58 -174 90 -231 184 -326 132 -133 287 -193 462 -179 253 19 426 133
534 350 51 104 73 206 65 307 -9 105 -33 177 -120 359 -112 234 -156 378 -176
582 -29 287 63 615 234 836 68 87 201 210 316 292 187 132 290 245 369 405 78
156 107 300 98 482 -7 150 -35 261 -96 387 -131 268 -368 463 -651 535 -110
29 -303 36 -412 15z"/>
<path d="M16450 15309 c0 -96 -7 -235 -16 -309 -133 -1145 -966 -2707 -2328
-4365 -797 -970 -1790 -1989 -2816 -2888 -1888 -1656 -3992 -3020 -5740 -3722
-1227 -493 -2223 -635 -2870 -410 -213 75 -366 169 -510 314 -178 180 -284
384 -342 660 -26 126 -36 463 -18 624 67 622 356 1386 846 2238 110 193 255
431 334 549 79 119 61 105 -32 -25 -535 -749 -999 -1543 -1266 -2170 -518
-1216 -520 -2115 -6 -2621 357 -352 933 -473 1722 -363 1493 208 3662 1285
5867 2913 365 270 841 641 1134 884 170 142 126 95 -92 -95 -1073 -942 -2293
-1856 -3380 -2533 l-197 -123 42 -25 c100 -57 353 -186 478 -243 1078 -490
2265 -685 3440 -563 1712 177 3280 1012 4389 2338 1202 1436 1736 3309 1475
5171 -96 684 -305 1364 -612 1990 l-78 160 -29 -50 c-58 -100 -251 -404 -358
-565 -262 -393 -568 -808 -902 -1226 -209 -260 -571 -690 -602 -715 -10 -8 16
27 58 76 123 147 375 466 541 685 933 1235 1571 2423 1808 3367 81 322 117
615 107 868 -5 133 -30 331 -42 344 -3 2 -5 -74 -5 -170z m-2480 -5192 c0 -2
-10 -12 -22 -23 l-23 -19 19 23 c18 21 26 27 26 19z m-3400 -3371 c0 -2 -8
-10 -17 -17 -16 -13 -17 -12 -4 4 13 16 21 21 21 13z"/>
<path d="M4440 15446 c-469 -68 -899 -323 -1184 -701 -395 -524 -464 -1218
-181 -1813 98 -204 210 -358 382 -522 132 -127 259 -215 428 -299 222 -110
403 -161 648 -183 290 -25 571 25 874 158 238 104 379 140 653 170 186 20 507
15 639 -10 652 -122 1089 -510 1301 -1155 60 -182 72 -257 59 -361 -54 -434
-351 -811 -825 -1048 -124 -62 -258 -109 -474 -167 -314 -85 -510 -103 -737
-69 -313 47 -576 -36 -784 -247 -275 -279 -352 -707 -189 -1056 92 -197 237
-341 441 -437 279 -132 565 -127 826 14 142 76 254 179 341 313 59 92 87 164
121 315 38 164 77 276 156 440 105 218 205 361 375 536 333 343 733 548 1162
595 114 13 302 13 408 1 296 -33 310 -34 418 -22 520 55 916 438 992 961 20
133 8 356 -24 466 -146 502 -621 845 -1139 822 -62 -2 -240 -10 -396 -18 -219
-9 -312 -10 -406 -1 -720 68 -1337 478 -1673 1112 -103 194 -169 397 -227 697
-42 216 -85 354 -160 508 -243 502 -708 867 -1249 981 -152 32 -427 41 -576
20z"/>
<path d="M7323 15169 c-203 -34 -378 -188 -450 -396 -36 -105 -38 -263 -4
-363 87 -250 333 -415 595 -397 324 22 562 289 543 612 -9 153 -65 275 -176
385 -134 132 -320 190 -508 159z"/>
<path d="M10255 14936 c-78 -33 -156 -113 -181 -188 -28 -79 -24 -179 7 -248
36 -77 68 -111 141 -150 54 -29 75 -35 149 -38 78 -4 92 -2 148 23 70 32 132
93 163 163 32 71 31 209 -2 277 -54 110 -159 176 -290 182 -63 3 -85 0 -135
-21z"/>
<path d="M13945 14524 c-83 -14 -160 -40 -255 -86 -94 -46 -116 -62 -205 -152
-81 -82 -109 -118 -147 -191 -72 -139 -92 -223 -92 -385 0 -162 20 -246 92
-385 37 -70 70 -113 154 -200 58 -62 117 -134 131 -161 77 -155 55 -330 -58
-453 -101 -108 -208 -146 -385 -136 -187 11 -328 -42 -460 -175 -87 -86 -131
-163 -160 -276 -25 -98 -25 -190 -1 -287 25 -95 33 -111 116 -222 132 -176
180 -310 180 -505 0 -145 -15 -213 -74 -335 -78 -164 -194 -281 -356 -361
-129 -63 -196 -79 -345 -79 -145 0 -213 15 -335 74 -248 119 -412 354 -461
660 -20 130 -28 152 -76 206 -170 193 -458 155 -574 -75 -24 -47 -28 -67 -29
-140 0 -102 10 -129 86 -235 120 -167 164 -296 164 -485 0 -149 -16 -216 -79
-345 -80 -162 -197 -278 -361 -356 -120 -58 -190 -73 -330 -74 -150 0 -217 17
-385 95 -181 85 -262 105 -435 105 -114 0 -155 -5 -224 -23 -275 -74 -491
-255 -608 -509 -57 -124 -74 -207 -82 -408 -6 -135 -12 -190 -25 -220 -53
-124 -146 -209 -268 -246 -57 -18 -86 -21 -152 -16 -73 5 -91 10 -181 57 -153
80 -238 96 -351 66 -157 -42 -272 -164 -305 -323 -10 -50 -10 -82 0 -173 68
-565 -304 -1062 -856 -1145 -123 -19 -183 -19 -303 0 -264 40 -486 169 -656
382 -130 164 -235 237 -382 268 -129 28 -257 12 -379 -46 -92 -44 -216 -167
-261 -261 -35 -72 -62 -177 -62 -244 0 -102 79 -309 164 -427 60 -85 179 -196
264 -246 202 -121 430 -173 747 -173 271 0 486 30 820 112 839 207 1846 672
2975 1375 498 310 1138 758 1550 1084 1617 1279 3171 2925 4085 4326 174 266
475 781 475 812 0 32 -356 449 -541 634 -167 166 -272 234 -431 279 -72 21
-265 34 -333 24z"/>
<path d="M12259 13195 c-105 -34 -189 -115 -229 -222 -18 -48 -21 -73 -18
-143 6 -139 66 -233 186 -292 62 -31 74 -33 167 -33 87 0 107 3 155 26 70 33
132 95 167 167 25 50 28 68 28 152 0 85 -3 102 -29 154 -61 125 -172 198 -306
203 -45 2 -93 -3 -121 -12z"/>
<path d="M7097 11276 c-228 -66 -381 -273 -380 -516 2 -263 186 -466 457 -502
97 -13 200 4 292 48 77 37 190 150 227 226 140 293 10 623 -288 729 -77 27
-238 35 -308 15z"/>
<path d="M3915 11256 c-78 -33 -156 -113 -181 -188 -28 -79 -24 -179 7 -248
36 -77 68 -111 141 -150 54 -29 75 -35 149 -38 78 -4 92 -2 148 23 70 32 132
93 163 163 32 71 31 209 -2 277 -54 110 -159 176 -290 182 -63 3 -85 0 -135
-21z"/>
<path d="M12805 9922 c-1368 -1354 -3115 -2708 -4655 -3609 -1295 -758 -2385
-1199 -3260 -1319 -178 -24 -508 -25 -655 0 -768 126 -1058 723 -815 1672 90
349 293 833 527 1254 281 507 412 730 568 971 114 176 87 146 -71 -76 -839
-1189 -1293 -2189 -1321 -2910 -14 -377 77 -653 284 -858 151 -149 330 -236
584 -283 115 -21 406 -29 565 -15 1702 150 4633 1848 7234 4189 493 445 1297
1225 1258 1222 -2 0 -111 -107 -243 -238z"/>
<path d="M7565 9366 c-63 -20 -117 -51 -157 -90 -186 -181 -141 -504 85 -616
241 -118 497 1 557 259 36 155 -37 326 -175 407 -87 51 -221 68 -310 40z"/>
</g>
</svg>
