<?xml version="1.0" encoding="iso-8859-1"?>
<!-- Generator: Adobe Illustrator 17.1.0, SVG Export Plug-In . SVG Version: 6.00 Build 0)  -->
<!DOCTYPE svg PUBLIC "-//W3C//DTD SVG 1.1//EN" "http://www.w3.org/Graphics/SVG/1.1/DTD/svg11.dtd">
<svg version="1.1" id="Capa_1" xmlns="http://www.w3.org/2000/svg" xmlns:xlink="http://www.w3.org/1999/xlink" x="0px" y="0px"
	 viewBox="0 0 209.841 209.841" style="enable-background:new 0 0 209.841 209.841;" xml:space="preserve">
<path d="M209.572,57.2c2.769-26.837-16.525-41.194-27.115-45.036c-2.348-0.854-5.24-0.063-6.402,2.151
	c-1.134,2.159-0.801,4.6,1.106,6.064c0.551,0.879,3.108,5.73,2.413,19.117c-0.129,2.48-0.472,9.068-13.929,9.069
	c-1.472,0-2.825-0.09-3.93-0.199c-0.958-1.999-2.528-4.618-4.927-8.261c-3.986-6.053-10.233-9.252-18.067-9.252
	c-4.531,0-9.622,1.157-13.968,3.175c-4.647,2.158-15.527,3.447-19.834,3.811c-4.307-0.363-15.186-1.652-19.833-3.811
	c-4.346-2.018-9.437-3.175-13.968-3.175c-7.834,0-14.081,3.199-18.067,9.252c-2.398,3.643-3.969,6.262-4.927,8.26
	c-1.105,0.11-2.459,0.2-3.931,0.2c-13.456,0-13.799-6.589-13.928-9.069c-0.695-13.387,1.862-18.238,2.413-19.117
	c1.907-1.465,2.24-3.905,1.106-6.064c-1.162-2.213-4.052-3.005-6.402-2.151C16.794,16.006-2.5,30.364,0.269,57.201
	c1.917,18.574,10.217,26.042,17.313,28.996c-5.747,5.5-11.913,12.858-12.091,19.237c-0.122,4.396,1.028,7.871,3.418,10.328
	c2.53,2.602,6.182,3.866,11.162,3.866c2.265,0,4.865-0.256,7.949-0.781c7.076-1.203,14.068-2.938,18.456-4.111
	c2.317,6.301,6.745,17.98,10.533,25.902c4.03,8.428,5.999,16.358,6.571,18.911c-0.758,4.617-2.663,20.931,6.328,29.921
	c7.059,7.06,20.983,8.542,31.421,8.542c1.762,0,3.044-0.05,3.591-0.075c0.548,0.025,1.83,0.075,3.591,0.075
	c10.438,0,24.363-1.482,31.422-8.542c8.991-8.99,7.086-25.303,6.328-29.921c0.573-2.558,2.541-10.485,6.571-18.911
	c3.788-7.922,8.216-19.602,10.533-25.902c4.388,1.173,11.38,2.907,18.456,4.111c3.084,0.525,5.685,0.781,7.949,0.781
	c4.981,0,8.632-1.265,11.162-3.866c2.39-2.457,3.54-5.932,3.418-10.329c-0.178-6.378-6.344-13.736-12.091-19.236
	C199.356,83.243,207.655,75.776,209.572,57.2z M59.048,101.576c0-4.129,1.861-7.971,5.106-10.541
	c1.889-1.498,4.578-1.432,6.396,0.154l12.501,10.928c1.815,1.588,2.239,4.245,1.008,6.318c-2.416,4.065-6.846,6.591-11.561,6.591
	C65.082,115.027,59.048,108.992,59.048,101.576z M84.468,184.142c-0.899,0.35-1.843,0.527-2.804,0.527
	c-4.59,0-8.599-3.99-9.976-9.93c-1.582-6.824,0.796-13.147,5.654-15.034c0.901-0.351,1.845-0.527,2.804-0.527
	c4.59,0,8.599,3.99,9.976,9.929C91.704,175.932,89.326,182.255,84.468,184.142z M138.298,174.74c-1.377,5.938-5.386,9.93-9.976,9.93
	c0,0,0,0-0.001,0c-0.96-0.001-1.903-0.178-2.804-0.528c-4.857-1.886-7.235-8.209-5.653-15.034c1.377-5.938,5.386-9.929,9.976-9.929
	c0.959,0,1.902,0.177,2.803,0.526C137.502,161.592,139.88,167.915,138.298,174.74z M137.343,115.027
	c-4.715,0-9.145-2.525-11.561-6.591c-1.231-2.073-0.808-4.73,1.008-6.318l12.501-10.928c1.817-1.586,4.506-1.652,6.396-0.154
	c3.245,2.57,5.106,6.412,5.106,10.541C150.793,108.992,144.759,115.027,137.343,115.027z"/>
<g>
</g>
<g>
</g>
<g>
</g>
<g>
</g>
<g>
</g>
<g>
</g>
<g>
</g>
<g>
</g>
<g>
</g>
<g>
</g>
<g>
</g>
<g>
</g>
<g>
</g>
<g>
</g>
<g>
</g>
</svg>
