<svg height="479pt" viewBox="0 -52 479.84 479" width="479pt" xmlns="http://www.w3.org/2000/svg"><path d="m424.011719 168.78125c15.125 17.527344 24.089843 39.53125 25.515625 62.640625h30.3125c-1.492188-31.140625-13.636719-60.820313-34.398438-84.074219zm0 0"/><path d="m284 44.421875v-44h-264v44zm0 0"/><path d="m314 60.421875h-264v44h220.214844c13.488281-8 28.21875-13.03125 43.785156-16.085937zm0 0"/><path d="m202.253906 180.421875h-182.253906v44h171.5c1.316406-15.132813 4.941406-29.96875 10.753906-44zm0 0"/><path d="m246.601562 120.421875h-226.601562v44h189.949219c9.269531-16.894531 21.714843-31.832031 36.652343-44zm0 0"/><path d="m207.027344 231.421875h30.3125c1.429687-23.261719 10.5-45.398437 25.796875-62.976563l-21.421875-21.425781c-20.9375 23.300781-33.1875 53.113281-34.6875 84.402344zm0 0"/><path d="m349 101.597656v30.285156c23.484375 1.214844 45.898438 10.214844 63.699219 25.582032l21.433593-21.429688c-23.527343-21-53.621093-33.175781-85.132812-34.4375zm0 0"/><path d="m333 132.25v-30.378906c-29.628906 2.257812-57.703125 14.152344-79.933594 33.871094l21.433594 21.4375c16.484375-14.109376 36.90625-22.8125 58.5-24.929688zm0 0"/><path d="m20 300.421875v44h213.988281c-12.296875-12.933594-22.386719-27.796875-29.867187-44zm0 0"/><path d="m343.433594 147.738281c-49.875 0-90.308594 40.429688-90.308594 90.304688s40.429688 90.308593 90.304688 90.308593 90.308593-40.433593 90.308593-90.308593c-.058593-49.851563-40.453125-90.25-90.304687-90.304688zm48.253906 97.144531-41.824219 61.511719c-1.488281 2.1875-3.964843 3.5-6.617187 3.5-2.648438 0-5.125-1.3125-6.613282-3.5l-41.824218-61.511719c-1.847656-2.714843-1.847656-6.285156 0-9l41.824218-61.507812c1.488282-2.191406 3.964844-3.5 6.613282-3.5 2.652344 0 5.128906 1.308594 6.617187 3.5l41.824219 61.507812c1.847656 2.714844 1.847656 6.285157 0 9zm0 0"/><path d="m190.890625 240.421875h-190.890625v44h198.015625c-4.496094-14.246094-6.894531-29.066406-7.125-44zm0 0"/><path d="m424.300781 306.972656 21.4375 21.4375c19.957031-22.503906 31.890625-50.984375 33.941407-80.988281h-30.359376c-1.933593 21.96875-10.679687 42.789063-25.019531 59.550781zm0 0"/><path d="m349 344.203125v30.285156c31.660156-1.265625 61.886719-13.550781 85.457031-34.726562l-21.425781-21.425781c-17.851562 15.539062-40.394531 24.648437-64.03125 25.867187zm0 0"/><path d="m207.191406 247.421875c2.058594 30.15625 14.101563 58.765625 34.230469 81.316406l21.433594-21.429687c-14.511719-16.8125-23.367188-37.765625-25.3125-59.886719zm0 0"/><path d="m333 343.839844c-21.742188-2.136719-42.292969-10.945313-58.832031-25.21875l-21.429688 21.429687c22.277344 19.890625 50.480469 31.898438 80.261719 34.167969zm0 0"/><path d="m311.097656 240.386719 32.148438 47.28125 32.152344-47.28125-32.152344-47.28125zm0 0"/></svg>